<?xml version="1.0" encoding="UTF-8"?>
<svg width="32px" height="32px" viewBox="0 0 32 32" version="1.1" xmlns="http://www.w3.org/2000/svg" xmlns:xlink="http://www.w3.org/1999/xlink">
    <title>用户图标</title>
    <g id="优化240909用户自助服务平台" stroke="none" stroke-width="1" fill="none" fill-rule="evenodd">
        <g id="A0-用户自助服务-主页" transform="translate(-1224.000000, -104.000000)">
            <g id="编组-17" transform="translate(1122.000000, 104.000000)">
                <g id="编组-16" transform="translate(86.000000, 0.000000)">
                    <g id="用户图标" transform="translate(16.000000, 0.000000)">
                        <circle id="椭圆形" fill="#DAECEF" cx="16" cy="16" r="16"></circle>
                        <path d="M18.125,19 C19.426,19 20.648,19.496 21.568,20.397 C22.479,21.289 23,22.524 23,23.786 L23,26 L20.25,26 L20.25,23.786 C20.25,22.643 19.297,21.714 18.125,21.714 L12.875,21.714 C11.703,21.714 10.75,22.643 10.75,23.786 L10.75,26 L8,26 L8,23.786 C8,21.147 10.187,19 12.875,19 L18.125,19 Z M15.5,7 C18.671,7 21.25,9.531 21.25,12.643 C21.25,15.755 18.671,18.286 15.5,18.286 C12.33,18.286 9.75,15.755 9.75,12.643 C9.75,9.531 12.33,7 15.5,7 Z M15.5,9.714 C13.846,9.714 12.5,11.028 12.5,12.643 C12.5,14.257 13.846,15.571 15.5,15.571 C16.57,15.571 17.567,15.008 18.101,14.103 C18.631,13.202 18.631,12.083 18.101,11.182 C17.567,10.276 16.57,9.714 15.5,9.714 Z" id="形状结合" fill="#2566D6"></path>
                    </g>
                </g>
            </g>
        </g>
    </g>
</svg>